# xmcd
#
# Track frame offsets:
#	150
#	12558
#	24999
#	36127
#	48974
#	62405
#	75699
#	88680
#	103367
#	128368
#	141297
#	160449
#	183241
#
# Disc length: 2520 seconds
#
# Revision: 1
# Processed by: cddbd v1.5.1PL0 Copyright (c) Steve Scherf et al.
# Submitted via: audiograbber 1.81.03
#
DISCID=a309d60d
DTITLE=Etta James - Big Blues Collection
DYEAR=2003
DGENRE=Blues
TTITLE0=Next Door To The Blues
TTITLE1=If I Can't Have You
TTITLE2=Security
TTITLE3=Stop The Wedding
TTITLE4=Two Sides To Every Story
TTITLE5=My Dearest Darling
TTITLE6=A Sunday Kind Of Love
TTITLE7=All I Could Do Is Cry
TTITLE8=All The Way Down
TTITLE9=Pushover
TTITLE10=Baby, What You Want Me To Do
TTITLE11=I'd Rather Go Blind
TTITLE12=Pilsener Advertising
EXTD=
EXTT0=
EXTT1=
EXTT2=
EXTT3=
EXTT4=
EXTT5=
EXTT6=
EXTT7=
EXTT8=
EXTT9=
EXTT10=
EXTT11=
EXTT12=
PLAYORDER=
